# xmcd
#
# Track frame offsets:
#	182
#	15882
#	33200
#	49620
#	65055
#	80770
#	99352
#	115377
#	131920
#	147732
#	161015
#	180252
#	195490
#	211412
#	229032
#	241745
#	257120
#	272322
#	291595
#	307557
#	322382
#	337222
#
# Disc length: 4718 seconds
#
# Revision: 0
# Processed by: cddbd v1.4PL0 Copyright (c) Steve Scherf et al.
# Submitted via: dBpowerAMP V4.0
#
DISCID=40126c16
DTITLE=Various Artist - Family Tradition
DYEAR=1900
DGENRE=Country
TTITLE0=Alabama - DOWN HOME
TTITLE1=Ricky Van Shelton - KEEP IT BETWEEN THE LINES
TTITLE2=The Forester Sisters LETTER HOME
TTITLE3=Paul Overstreet - SEEIN' MY FATHER IN ME
TTITLE4=Holly Dunn - DADDY'S HANDS
TTITLE5=Randy Travis - NO PLACE LIKE HOME
TTITLE6=The Nitty Gritty Dirt Band - HOME AGAIN IN MY HEART
TTITLE7=Gail Davies - GRANDMA'S SONG
TTITLE8=Lionel Cartwright - LIKE FATHER LIKE SON
TTITLE9=Hal Ketchum - SMALL TOWN SATURDAY NIGHT
TTITLE10=The Judds - GRANDPA ( TELL ME ABOUT THE GOOD OLD DAYS
TTITLE11=Michael Martin Murphey - A LONG LINE OF LOVE
TTITLE12=Mac McAnally - BACK WHERE I COME FROM
TTITLE13=Collin Raye - LOVE ME
TTITLE14=Eddie Raven - BAYOU BOYS
TTITLE15=Dolly Parton - TENNESSEE HOMESICK BLUES
TTITLE16=Joe Diffie - HOME
TTITLE17=Don Williams - GOOD OLE BOYS LIKE ME
TTITLE18=John Anderson - I CAME HOME TO COUNT THE MEMORIES
TTITLE19=Emmylou Harris - BLE KENTUCKY GIRL
TTITLE20=The Nitty Gritty Dirt Band - LONG HARD ROAD ( THE SHARECROPPER'S DREAM )
TTITLE21=Sawyer Brown - THE WALK
EXTD=
EXTT0=
EXTT1=
EXTT2=
EXTT3=
EXTT4=
EXTT5=
EXTT6=
EXTT7=
EXTT8=
EXTT9=
EXTT10=
EXTT11=
EXTT12=
EXTT13=
EXTT14=
EXTT15=
EXTT16=
EXTT17=
EXTT18=
EXTT19=
EXTT20=
EXTT21=
PLAYORDER=
